<svg width="19" height="22" viewBox="0 0 19 22" fill="none" xmlns="http://www.w3.org/2000/svg">
<g id="basket">
<path id="Rectangle-10" fill-rule="evenodd" clip-rule="evenodd" d="M18.9474 5.95123H0V17.7407C0 19.9499 1.79086 21.7407 4 21.7407H14.9474C17.1565 21.7407 18.9474 19.9499 18.9474 17.7407V5.95123ZM4 20.2407C2.61929 20.2407 1.5 19.1214 1.5 17.7407V7.45123H17.4474V17.7407C17.4474 19.1214 16.3281 20.2407 14.9474 20.2407H4Z" fill="#262626"/>
<path id="Rectangle-3" d="M6.01315 11.1525V4.96053C6.01315 3.04933 7.56248 1.5 9.47368 1.5C11.3849 1.5 12.9342 3.04933 12.9342 4.96053V11.1525C12.9342 11.5667 13.27 11.9025 13.6842 11.9025C14.0984 11.9025 14.4342 11.5667 14.4342 11.1525V4.96053C14.4342 2.2209 12.2133 0 9.47368 0C6.73406 0 4.51315 2.2209 4.51315 4.96053V11.1525C4.51315 11.5667 4.84894 11.9025 5.26315 11.9025C5.67737 11.9025 6.01315 11.5667 6.01315 11.1525Z" fill="#262626"/>
</g>
</svg>
